<?xml version="1.0" standalone="no"?>
<!DOCTYPE svg PUBLIC "-//W3C//DTD SVG 20010904//EN"
 "http://www.w3.org/TR/2001/REC-SVG-20010904/DTD/svg10.dtd">
<svg version="1.0" xmlns="http://www.w3.org/2000/svg"
 width="229.000000pt" height="187.000000pt" viewBox="0 0 229.000000 187.000000"
 preserveAspectRatio="xMidYMid meet">

<g transform="translate(0.000000,187.000000) scale(0.100000,-0.100000)"
fill="#000000" stroke="none">
<path d="M880 1810 c0 -57 1 -60 25 -60 36 0 104 -30 115 -51 6 -10 10 -85 10
-168 l0 -151 175 0 175 0 0 148 c0 120 3 152 16 171 20 28 72 51 114 51 l30 0
0 60 0 60 -330 0 -330 0 0 -60z"/>
<path d="M12 1809 l3 -52 48 -12 c26 -7 59 -23 73 -36 l25 -23 -3 -474 -3
-473 -25 -19 c-14 -11 -49 -25 -77 -31 l-53 -12 0 -59 0 -58 340 0 340 0 0 65
0 65 -37 0 c-47 0 -100 31 -113 66 -6 14 -10 115 -10 224 l0 198 203 7 c204 7
233 5 275 -21 22 -14 22 -18 22 -215 0 -124 -4 -208 -11 -221 -13 -24 -67 -48
-109 -48 -30 0 -30 -1 -30 -53 l0 -54 242 -6 c133 -4 283 -7 335 -7 l93 0 0
60 c0 58 -1 60 -26 60 -14 0 -42 8 -61 17 -57 27 -63 54 -63 287 0 233 -7 216
95 216 151 0 271 -74 339 -211 56 -112 69 -193 63 -388 -7 -233 -35 -322 -121
-398 -75 -66 -246 -104 -313 -69 -67 34 -73 52 -73 222 l0 154 -169 0 -168 0
-7 -31 c-3 -17 -6 -91 -6 -163 0 -144 -6 -163 -60 -191 -16 -8 -44 -16 -64
-17 -31 -3 -35 -7 -40 -38 -13 -79 -61 -72 457 -67 404 3 469 6 521 21 216 64
362 215 422 436 23 83 26 309 5 390 -54 212 -203 360 -446 441 -70 23 -71 23
-688 27 l-618 3 3 180 3 181 31 28 c18 16 50 31 73 35 l41 7 0 54 0 54 -331 0
-330 0 3 -51z"/>
</g>
</svg>
